<?xml version="1.0" encoding="utf-8"?>
<!-- Generator: Adobe Illustrator 16.0.0, SVG Export Plug-In . SVG Version: 6.00 Build 0)  -->
<!DOCTYPE svg PUBLIC "-//W3C//DTD SVG 1.1//EN" "http://www.w3.org/Graphics/SVG/1.1/DTD/svg11.dtd">
<svg version="1.1" id="Слой_1" xmlns="http://www.w3.org/2000/svg" xmlns:xlink="http://www.w3.org/1999/xlink" x="0px" y="0px"
	 width="612px" height="792px" viewBox="0 0 612 792" enable-background="new 0 0 612 792" xml:space="preserve">
<path fill="#FFFFFF" d="M306.335,139.604c0,0,281.532-8.121,304.28,145.267c22.75,153.388-241.48,454.497-304.28,467.673V139.604z"
	/>
<path fill="#FFFFFF" d="M306.336,139.604c0,0-281.53-8.121-304.278,145.267C-20.69,438.259,243.536,739.367,306.336,752.544V139.604
	z"/>
<path fill="#95C3C6" d="M306.198,110.604c0,0,281.532-8.121,304.28,145.267c22.75,153.388-241.48,454.497-304.28,467.673V110.604z"
	/>
<path fill="#95C3C6" d="M306.199,110.604c0,0-281.53-8.121-304.278,145.267c-22.748,153.388,241.478,454.497,304.278,467.673
	V110.604z"/>
<circle display="none" opacity="0.2" fill="#FFFFFF" enable-background="new    " cx="190.822" cy="265.155" r="29.621"/>
<circle display="none" opacity="0.2" fill="#FFFFFF" enable-background="new    " cx="209.793" cy="369.562" r="14.565"/>
<path fill-rule="evenodd" clip-rule="evenodd" d="M289.629,304.968c30.862-2.318,61.571-1.001,91.831,7.167
	c13.046,3.525,25.225,8.822,32.818,22.216c1.215,2.145,4.467,3.88,6.923,4.158c23.583,2.656,34.977,21.451,26.755,48.347
	c-9.469,31.014-27.396,55.053-58.026,65.255c-3.102,1.027-6.542,2.94-8.457,5.593c-40.724,56.457-125.514,52.834-161.916-21.166
	c-12.676-25.76-21.285-53.035-22.551-82.389c-0.464-10.737,2.447-19.789,10.925-26.398c15.416-12.019,33.203-17.171,51.635-20.147
	C269.478,306.004,279.602,305.802,289.629,304.968z M247.211,329.449c-13.635,5.752-15.151,10.736-16.726,16.272
	c-2.738,9.63,8.245,15.385,15.146,18.656c3.453,1.637,2.299,1.091,3.453,1.637c35.508,16.699,71.613,16.752,107.771,4.797
	c8.168-2.691,16.143-7.644,22.819-13.4c10.227-8.801,9.442-20.163-2.725-25.785C338.972,314.079,280.208,319.052,247.211,329.449
	 M398.524,430.582c14.006-2.346,37.238-35.553,38.334-51.705c1.055-15.523-4.75-22.473-19.066-21.636
	C411.407,381.558,405.052,405.739,398.524,430.582z"/>
<path fill-rule="evenodd" clip-rule="evenodd" d="M272.31,188.437c7.828-9.777,17.263-11.676,26.552-11.777
	c38.129-0.416,69.345,15.083,90.96,49.944c6.947,11.199,10.379,23.867,4.529,39.519C353.397,240.059,313.118,214.417,272.31,188.437
	z"/>
<path fill-rule="evenodd" clip-rule="evenodd" d="M260.837,206.724c41.152,25.919,81.368,51.254,122.423,77.111
	c-11.574,12.563-25.43,15.19-39.615,12.931c-32.605-5.202-58.342-23.07-76.38-53.118
	C260.734,232.771,257.788,220.866,260.837,206.724z"/>
<path fill-rule="evenodd" clip-rule="evenodd" d="M329.273,558.291c-51.51,3.98-99.618-6.728-143.295-36.049
	c-8.104-5.44-15.154-12.201-20.384-20.626c-7.088-11.419-5.209-21.909,5.55-28.654c13.508-8.471,28.981-10.379,44.331-12.38
	c3.376-0.441,4.739,2.406,6.417,4.67c21.423,28.932,50.021,44.633,85.198,44.856c35.678,0.229,64.62-15.69,85.478-45.177
	c5.793-8.189,11.455-11.019,20.608-8.68c6.9,1.765,13.975,2.699,20.593,5.652c14.173,6.319,18.36,17.367,11.597,31.652
	c-6.376,13.471-16.657,23.611-28.265,32.092C390.89,544.795,361.428,555.374,329.273,558.291z"/>
</svg>
